<svg xmlns="http://www.w3.org/2000/svg" viewBox="0 0 600 600" width="600" height="600">
  <defs>
    <linearGradient id="g" x1="0" y1="0" x2="0.7" y2="1">
      <stop offset="0%" stop-color="#8c7414"/><stop offset="100%" stop-color="#2b2206"/>
    </linearGradient>
    <radialGradient id="h" cx="50%" cy="42%" r="60%">
      <stop offset="0%" stop-color="#f2dd6b" stop-opacity="0.4"/>
      <stop offset="100%" stop-color="#f2dd6b" stop-opacity="0"/>
    </radialGradient>
  </defs>
  <rect width="600" height="600" fill="url(#g)"/>
  <rect width="600" height="600" fill="url(#h)"/>
  <circle cx="65.1%" cy="86.4%" r="0.45" fill="#fff" opacity="0.5"/><circle cx="40.9%" cy="29.6%" r="0.62" fill="#fff" opacity="0.5"/><circle cx="68.5%" cy="29.4%" r="1.26" fill="#fff" opacity="0.5"/><circle cx="37.1%" cy="72.1%" r="1.08" fill="#fff" opacity="0.5"/><circle cx="94.4%" cy="23.9%" r="0.28" fill="#fff" opacity="0.5"/><circle cx="33.7%" cy="48.3%" r="0.80" fill="#fff" opacity="0.5"/><circle cx="37.5%" cy="18.5%" r="1.25" fill="#fff" opacity="0.5"/><circle cx="35.1%" cy="58.7%" r="0.30" fill="#fff" opacity="0.5"/><circle cx="45.1%" cy="77.1%" r="0.96" fill="#fff" opacity="0.5"/><circle cx="36.3%" cy="37.7%" r="1.03" fill="#fff" opacity="0.5"/><circle cx="10.4%" cy="70.7%" r="0.72" fill="#fff" opacity="0.5"/><circle cx="7.3%" cy="5.6%" r="0.83" fill="#fff" opacity="0.5"/><circle cx="60.6%" cy="62.9%" r="1.06" fill="#fff" opacity="0.5"/><circle cx="23.4%" cy="87.3%" r="1.09" fill="#fff" opacity="0.5"/><circle cx="89.4%" cy="92.5%" r="0.28" fill="#fff" opacity="0.5"/><circle cx="52.6%" cy="39.4%" r="1.22" fill="#fff" opacity="0.5"/><circle cx="44.7%" cy="43.8%" r="0.54" fill="#fff" opacity="0.5"/><circle cx="77.9%" cy="47.0%" r="1.01" fill="#fff" opacity="0.5"/><circle cx="88.1%" cy="74.2%" r="0.52" fill="#fff" opacity="0.5"/><circle cx="46.3%" cy="50.8%" r="0.90" fill="#fff" opacity="0.5"/><circle cx="13.5%" cy="54.7%" r="0.29" fill="#fff" opacity="0.5"/><circle cx="13.9%" cy="4.2%" r="0.42" fill="#fff" opacity="0.5"/><circle cx="56.2%" cy="95.3%" r="0.84" fill="#fff" opacity="0.5"/><circle cx="12.9%" cy="74.4%" r="0.98" fill="#fff" opacity="0.5"/><circle cx="19.6%" cy="1.4%" r="1.00" fill="#fff" opacity="0.5"/><circle cx="28.8%" cy="87.8%" r="0.79" fill="#fff" opacity="0.5"/><circle cx="30.2%" cy="90.3%" r="0.81" fill="#fff" opacity="0.5"/><circle cx="52.6%" cy="68.0%" r="0.56" fill="#fff" opacity="0.5"/><circle cx="11.0%" cy="98.5%" r="1.15" fill="#fff" opacity="0.5"/><circle cx="81.9%" cy="26.5%" r="0.98" fill="#fff" opacity="0.5"/><circle cx="35.3%" cy="95.4%" r="1.01" fill="#fff" opacity="0.5"/><circle cx="100.0%" cy="91.7%" r="0.29" fill="#fff" opacity="0.5"/><circle cx="65.9%" cy="40.8%" r="0.33" fill="#fff" opacity="0.5"/><circle cx="17.9%" cy="21.1%" r="0.87" fill="#fff" opacity="0.5"/><circle cx="41.2%" cy="46.2%" r="0.48" fill="#fff" opacity="0.5"/><circle cx="94.4%" cy="58.6%" r="0.34" fill="#fff" opacity="0.5"/><circle cx="37.6%" cy="88.9%" r="0.83" fill="#fff" opacity="0.5"/><circle cx="95.8%" cy="41.7%" r="1.05" fill="#fff" opacity="0.5"/><circle cx="6.0%" cy="39.0%" r="0.59" fill="#fff" opacity="0.5"/><circle cx="18.5%" cy="7.2%" r="1.20" fill="#fff" opacity="0.5"/><circle cx="43.2%" cy="33.8%" r="1.23" fill="#fff" opacity="0.5"/><circle cx="2.9%" cy="23.6%" r="1.25" fill="#fff" opacity="0.5"/><circle cx="96.5%" cy="25.3%" r="1.14" fill="#fff" opacity="0.5"/><circle cx="79.4%" cy="28.5%" r="0.29" fill="#fff" opacity="0.5"/><circle cx="6.3%" cy="66.4%" r="0.37" fill="#fff" opacity="0.5"/><circle cx="22.8%" cy="9.7%" r="0.34" fill="#fff" opacity="0.5"/><circle cx="41.5%" cy="72.7%" r="1.13" fill="#fff" opacity="0.5"/><circle cx="12.4%" cy="75.3%" r="1.20" fill="#fff" opacity="0.5"/><circle cx="8.2%" cy="56.7%" r="0.36" fill="#fff" opacity="0.5"/><circle cx="83.0%" cy="34.8%" r="0.76" fill="#fff" opacity="0.5"/><circle cx="45.8%" cy="25.9%" r="0.73" fill="#fff" opacity="0.5"/><circle cx="77.0%" cy="54.5%" r="0.72" fill="#fff" opacity="0.5"/><circle cx="7.5%" cy="57.0%" r="1.26" fill="#fff" opacity="0.5"/><circle cx="15.7%" cy="60.8%" r="0.86" fill="#fff" opacity="0.5"/><circle cx="12.5%" cy="76.6%" r="1.29" fill="#fff" opacity="0.5"/><circle cx="4.6%" cy="67.8%" r="1.12" fill="#fff" opacity="0.5"/><circle cx="63.4%" cy="8.3%" r="0.84" fill="#fff" opacity="0.5"/><circle cx="98.0%" cy="37.5%" r="0.51" fill="#fff" opacity="0.5"/><circle cx="88.4%" cy="91.8%" r="0.71" fill="#fff" opacity="0.5"/><circle cx="60.6%" cy="57.1%" r="0.28" fill="#fff" opacity="0.5"/><circle cx="74.8%" cy="96.5%" r="0.89" fill="#fff" opacity="0.5"/><circle cx="81.9%" cy="77.5%" r="0.72" fill="#fff" opacity="0.5"/><circle cx="71.4%" cy="98.8%" r="0.37" fill="#fff" opacity="0.5"/><circle cx="72.7%" cy="47.3%" r="1.11" fill="#fff" opacity="0.5"/><circle cx="88.4%" cy="26.7%" r="0.30" fill="#fff" opacity="0.5"/><circle cx="59.5%" cy="74.4%" r="0.41" fill="#fff" opacity="0.5"/><circle cx="55.1%" cy="36.6%" r="1.18" fill="#fff" opacity="0.5"/><circle cx="76.6%" cy="15.2%" r="1.20" fill="#fff" opacity="0.5"/><circle cx="90.6%" cy="48.7%" r="0.66" fill="#fff" opacity="0.5"/><circle cx="9.5%" cy="92.6%" r="0.78" fill="#fff" opacity="0.5"/>
  <g transform="translate(0,20)"><g fill="#fdf2b8">
              <path d="M150 200 h300 l-24 190 h-252 Z" opacity="0.9"/>
              <path d="M225 200 v-30 a75 75 0 0 1 150 0 v30" fill="none" stroke="#fdf2b8" stroke-width="18"/>
            </g></g>
  <rect x="18" y="18" width="564" height="564" fill="none" stroke="#f2dd6b" stroke-width="3" opacity="0.55"/>
</svg>
